M48
;Layer_Color=9474304
;FILE_FORMAT=2:5
INCH,LZ
;TYPE=PLATED
T1F00S00C0.00800
%
T01
X-005892Y011158
X-004572
X-003252
X-000852Y011156
X000468
Y013856
X-000852
X-003252Y013858
X-004572
X-005892
X001788Y013856
X004188
X005508
X006828
X009288
X010608
X011928
Y011156
X010608
X009288
X006828
X005508
X004188
X001788
Y016616
X004188
X005508
X006828
X009288
X010608
X011928
Y019374
X010608
X009288
X006828
X005508
X004188
X001788
Y022136
X004188
X005508
X006828
X009288
X010608
X011928
Y024896
X010608
X009288
X006828
X005508
X004188
X001788
Y027536
X004188
X005508
X006828
X009288
X010608
X011928
X000468
X-000852
X-003252
X-004572
X-005892
Y024898
X-004572
X-003252
X-000852Y024896
X000468
Y022136
X-000852
X-003252Y022138
X-004572
X-005892
Y019376
X-004572
X-003252
X-000852Y019374
X000468
Y016616
X-000852
X-003252Y016618
X-004572
X-005892
M30
