G04 Layer_Color=128*
%FSLAX25Y25*%
%MOIN*%
G70*
G01*
G75*
%ADD43C,0.00200*%
D43*
X-59320Y275360D02*
X-58520D01*
X-58920Y274960D02*
Y275760D01*
X-46120Y275360D02*
X-45320D01*
X-45720Y274960D02*
Y275760D01*
X-32920Y275360D02*
X-32120D01*
X-32520Y274960D02*
Y275760D01*
X-32920Y248980D02*
X-32120D01*
X-32520Y248580D02*
Y249380D01*
X-46120Y248980D02*
X-45320D01*
X-45720Y248580D02*
Y249380D01*
X-59320Y248980D02*
X-58520D01*
X-58920Y248580D02*
Y249380D01*
X-32920Y221380D02*
X-32120D01*
X-32520Y220980D02*
Y221780D01*
X-46120Y221380D02*
X-45320D01*
X-45720Y220980D02*
Y221780D01*
X-59320Y221380D02*
X-58520D01*
X-58920Y220980D02*
Y221780D01*
X-32920Y193760D02*
X-32120D01*
X-32520Y193360D02*
Y194160D01*
X-46120Y193760D02*
X-45320D01*
X-45720Y193360D02*
Y194160D01*
X-59320Y193760D02*
X-58520D01*
X-58920Y193360D02*
Y194160D01*
X-32920Y166180D02*
X-32120D01*
X-32520Y165780D02*
Y166580D01*
X-46120Y166180D02*
X-45320D01*
X-45720Y165780D02*
Y166580D01*
X-59320Y166180D02*
X-58520D01*
X-58920Y165780D02*
Y166580D01*
X-59320Y138580D02*
X-58520D01*
X-58920Y138180D02*
Y138980D01*
X-46120Y138580D02*
X-45320D01*
X-45720Y138180D02*
Y138980D01*
X-32920Y138580D02*
X-32120D01*
X-32520Y138180D02*
Y138980D01*
X-59320Y111580D02*
X-58520D01*
X-58920Y111180D02*
Y111980D01*
X-46120Y111580D02*
X-45320D01*
X-45720Y111180D02*
Y111980D01*
X-32920Y111580D02*
X-32120D01*
X-32520Y111180D02*
Y111980D01*
X17480Y111560D02*
X18280D01*
X17880Y111160D02*
Y111960D01*
X4280Y111560D02*
X5080D01*
X4680Y111160D02*
Y111960D01*
X-8920Y111560D02*
X-8120D01*
X-8520Y111160D02*
Y111960D01*
X17480Y138560D02*
X18280D01*
X17880Y138160D02*
Y138960D01*
X4280Y138560D02*
X5080D01*
X4680Y138160D02*
Y138960D01*
X-8920Y138560D02*
X-8120D01*
X-8520Y138160D02*
Y138960D01*
X-8920Y166160D02*
X-8120D01*
X-8520Y165760D02*
Y166560D01*
X4280Y166160D02*
X5080D01*
X4680Y165760D02*
Y166560D01*
X17480Y166160D02*
X18280D01*
X17880Y165760D02*
Y166560D01*
X-8920Y193740D02*
X-8120D01*
X-8520Y193340D02*
Y194140D01*
X4280Y193740D02*
X5080D01*
X4680Y193340D02*
Y194140D01*
X17480Y193740D02*
X18280D01*
X17880Y193340D02*
Y194140D01*
X-8920Y221360D02*
X-8120D01*
X-8520Y220960D02*
Y221760D01*
X4280Y221360D02*
X5080D01*
X4680Y220960D02*
Y221760D01*
X17480Y221360D02*
X18280D01*
X17880Y220960D02*
Y221760D01*
X-8920Y248960D02*
X-8120D01*
X-8520Y248560D02*
Y249360D01*
X4280Y248960D02*
X5080D01*
X4680Y248560D02*
Y249360D01*
X17480Y248960D02*
X18280D01*
X17880Y248560D02*
Y249360D01*
X17480Y275360D02*
X18280D01*
X17880Y274960D02*
Y275760D01*
X4280Y275360D02*
X5080D01*
X4680Y274960D02*
Y275760D01*
X-8920Y275360D02*
X-8120D01*
X-8520Y274960D02*
Y275760D01*
X67880Y111560D02*
X68680D01*
X68280Y111160D02*
Y111960D01*
X54680Y111560D02*
X55480D01*
X55080Y111160D02*
Y111960D01*
X41480Y111560D02*
X42280D01*
X41880Y111160D02*
Y111960D01*
X67880Y138560D02*
X68680D01*
X68280Y138160D02*
Y138960D01*
X54680Y138560D02*
X55480D01*
X55080Y138160D02*
Y138960D01*
X41480Y138560D02*
X42280D01*
X41880Y138160D02*
Y138960D01*
X41480Y166160D02*
X42280D01*
X41880Y165760D02*
Y166560D01*
X54680Y166160D02*
X55480D01*
X55080Y165760D02*
Y166560D01*
X67880Y166160D02*
X68680D01*
X68280Y165760D02*
Y166560D01*
X41480Y193740D02*
X42280D01*
X41880Y193340D02*
Y194140D01*
X54680Y193740D02*
X55480D01*
X55080Y193340D02*
Y194140D01*
X67880Y193740D02*
X68680D01*
X68280Y193340D02*
Y194140D01*
X41480Y221360D02*
X42280D01*
X41880Y220960D02*
Y221760D01*
X54680Y221360D02*
X55480D01*
X55080Y220960D02*
Y221760D01*
X67880Y221360D02*
X68680D01*
X68280Y220960D02*
Y221760D01*
X41480Y248960D02*
X42280D01*
X41880Y248560D02*
Y249360D01*
X54680Y248960D02*
X55480D01*
X55080Y248560D02*
Y249360D01*
X67880Y248960D02*
X68680D01*
X68280Y248560D02*
Y249360D01*
X67880Y275360D02*
X68680D01*
X68280Y274960D02*
Y275760D01*
X54680Y275360D02*
X55480D01*
X55080Y274960D02*
Y275760D01*
X41480Y275360D02*
X42280D01*
X41880Y274960D02*
Y275760D01*
X118880Y111560D02*
X119680D01*
X119280Y111160D02*
Y111960D01*
X105680Y111560D02*
X106480D01*
X106080Y111160D02*
Y111960D01*
X92480Y111560D02*
X93280D01*
X92880Y111160D02*
Y111960D01*
X118880Y138560D02*
X119680D01*
X119280Y138160D02*
Y138960D01*
X105680Y138560D02*
X106480D01*
X106080Y138160D02*
Y138960D01*
X92480Y138560D02*
X93280D01*
X92880Y138160D02*
Y138960D01*
X92480Y166160D02*
X93280D01*
X92880Y165760D02*
Y166560D01*
X105680Y166160D02*
X106480D01*
X106080Y165760D02*
Y166560D01*
X118880Y166160D02*
X119680D01*
X119280Y165760D02*
Y166560D01*
X92480Y193740D02*
X93280D01*
X92880Y193340D02*
Y194140D01*
X105680Y193740D02*
X106480D01*
X106080Y193340D02*
Y194140D01*
X118880Y193740D02*
X119680D01*
X119280Y193340D02*
Y194140D01*
X92480Y221360D02*
X93280D01*
X92880Y220960D02*
Y221760D01*
X105680Y221360D02*
X106480D01*
X106080Y220960D02*
Y221760D01*
X118880Y221360D02*
X119680D01*
X119280Y220960D02*
Y221760D01*
X92480Y248960D02*
X93280D01*
X92880Y248560D02*
Y249360D01*
X105680Y248960D02*
X106480D01*
X106080Y248560D02*
Y249360D01*
X118880Y248960D02*
X119680D01*
X119280Y248560D02*
Y249360D01*
X118880Y275360D02*
X119680D01*
X119280Y274960D02*
Y275760D01*
X105680Y275360D02*
X106480D01*
X106080Y274960D02*
Y275760D01*
X92480Y275360D02*
X93280D01*
X92880Y274960D02*
Y275760D01*
M02*
