G04 Layer_Color=16711935*
%FSLAX25Y25*%
%MOIN*%
G70*
G01*
G75*
%ADD41C,0.01000*%
%ADD42C,0.00600*%
D41*
X135360Y97620D02*
Y99520D01*
X-70800Y97620D02*
Y99520D01*
X118752Y98520D02*
X135360D01*
X-70800D02*
X-57392D01*
X129360Y100520D02*
X135360Y98520D01*
X129360Y96520D02*
X135360Y98520D01*
X-70800D02*
X-64800Y96520D01*
X-70800Y98520D02*
X-64800Y100520D01*
X133860Y99120D02*
X135520D01*
X133860Y295080D02*
X135520D01*
X134520Y99120D02*
Y107428D01*
Y283572D02*
Y295080D01*
Y99120D02*
X136520Y105120D01*
X132520D02*
X134520Y99120D01*
X132520Y289080D02*
X134520Y295080D01*
X136520Y289080D01*
D42*
X-51793Y100419D02*
X-55792D01*
Y97420D01*
X-53793Y98420D01*
X-52793D01*
X-51793Y97420D01*
Y95421D01*
X-52793Y94421D01*
X-54792D01*
X-55792Y95421D01*
X-45795Y94421D02*
X-49794D01*
X-45795Y98420D01*
Y99419D01*
X-46795Y100419D01*
X-48794D01*
X-49794Y99419D01*
X-43796Y94421D02*
Y95421D01*
X-42796D01*
Y94421D01*
X-43796D01*
X-38798Y99419D02*
X-37798Y100419D01*
X-35798D01*
X-34799Y99419D01*
Y98420D01*
X-35798Y97420D01*
X-36798D01*
X-35798D01*
X-34799Y96421D01*
Y95421D01*
X-35798Y94421D01*
X-37798D01*
X-38798Y95421D01*
X-32800Y100419D02*
X-28801D01*
Y99419D01*
X-32800Y95421D01*
Y94421D01*
X-26801Y97420D02*
Y98420D01*
X-25802D01*
Y97420D01*
X-26801D01*
Y95421D02*
X-25802D01*
Y94421D01*
X-26801Y93422D01*
X-25802Y94421D02*
X-26801D01*
Y95421D01*
X107155Y94421D02*
Y98420D01*
X108155D01*
X109155Y97420D01*
Y94421D01*
Y97420D01*
X110154Y98420D01*
X111154Y97420D01*
Y94421D01*
X113153D02*
Y98420D01*
X114153D01*
X115153Y97420D01*
Y94421D01*
Y97420D01*
X116152Y98420D01*
X117152Y97420D01*
Y94421D01*
X138619Y112027D02*
X132621D01*
X135620Y109028D01*
Y113027D01*
X137619Y115026D02*
X138619Y116026D01*
Y118025D01*
X137619Y119025D01*
X133621D01*
X132621Y118025D01*
Y116026D01*
X133621Y115026D01*
X134620D01*
X135620Y116026D01*
Y119025D01*
X138619Y121024D02*
X137619D01*
Y122024D01*
X138619D01*
Y121024D01*
X132621Y126023D02*
Y130021D01*
X133621D01*
X137619Y126023D01*
X138619D01*
X132621Y132020D02*
Y136019D01*
X133621D01*
X137619Y132020D01*
X138619D01*
X135620Y138019D02*
X134620D01*
Y139018D01*
X135620D01*
Y138019D01*
X137619D02*
Y139018D01*
X138619D01*
X139619Y138019D01*
X138619Y139018D02*
Y138019D01*
X137619D01*
X138619Y271975D02*
X134620D01*
Y272975D01*
X135620Y273975D01*
X138619D01*
X135620D01*
X134620Y274974D01*
X135620Y275974D01*
X138619D01*
Y277973D02*
X134620D01*
Y278973D01*
X135620Y279973D01*
X138619D01*
X135620D01*
X134620Y280972D01*
X135620Y281972D01*
X138619D01*
M02*
